<?xml version="1.0" encoding="UTF-8" standalone="no"?>
<svg
   height="48"
   width="48"
   version="1.1"
   id="svg4"
   sodipodi:docname="rain.svg"
   inkscape:version="1.2 (dc2aedaf03, 2022-05-15)"
   xmlns:inkscape="http://www.inkscape.org/namespaces/inkscape"
   xmlns:sodipodi="http://sodipodi.sourceforge.net/DTD/sodipodi-0.dtd"
   xmlns="http://www.w3.org/2000/svg"
   xmlns:svg="http://www.w3.org/2000/svg">
  <defs
     id="defs8" />
  <sodipodi:namedview
     id="namedview6"
     pagecolor="#ffffff"
     bordercolor="#000000"
     borderopacity="0.25"
     inkscape:showpageshadow="2"
     inkscape:pageopacity="0.0"
     inkscape:pagecheckerboard="0"
     inkscape:deskcolor="#d1d1d1"
     showgrid="false"
     inkscape:zoom="17.4375"
     inkscape:cx="24"
     inkscape:cy="24.028674"
     inkscape:window-width="1920"
     inkscape:window-height="1017"
     inkscape:window-x="-8"
     inkscape:window-y="-8"
     inkscape:window-maximized="1"
     inkscape:current-layer="svg4" />
  <path
     d="M27.9 43.85q-.55.25-1.175.05t-.875-.75l-3.45-6.9q-.25-.55-.075-1.175t.725-.875q.55-.25 1.175-.05t.875.75l3.45 6.9q.25.55.075 1.175t-.725.875Zm12-.05q-.55.25-1.175.05t-.875-.75l-3.45-6.9q-.25-.55-.075-1.175t.725-.875q.55-.25 1.175-.05t.875.75l3.45 6.9q.25.55.075 1.175t-.725.875Zm-24 0q-.55.25-1.175.075t-.875-.725l-3.45-6.9q-.25-.55-.05-1.175t.75-.875q.55-.25 1.175-.075t.875.725l3.45 6.95q.25.55.05 1.15-.2.6-.75.85ZM14.5 31q-4.35 0-7.425-3.075T4 20.5q0-3.95 2.825-7.05 2.825-3.1 7.025-3.4 1.6-2.8 4.225-4.425Q20.7 4 24 4q4.55 0 7.625 2.875T35.4 14q3.95.2 6.275 2.675Q44 19.15 44 22.5q0 3.5-2.475 6T35.5 31Zm0-3h21q2.3 0 3.9-1.625T41 22.5q0-2.3-1.6-3.9T35.5 17h-3v-1.5q0-3.55-2.475-6.025Q27.55 7 24 7q-2.55 0-4.675 1.375T16.2 12.1l-.4.9h-1.4q-3.1.1-5.25 2.275T7 20.5q0 3.1 2.2 5.3 2.2 2.2 5.3 2.2ZM24 17.5Z"
     id="path2"
     style="fill:#ffffff;fill-opacity:1" />
</svg>
