<svg id="visual" viewBox="0 0 960 540" width="960" height="540" xmlns="http://www.w3.org/2000/svg" xmlns:xlink="http://www.w3.org/1999/xlink" version="1.1"><g stroke-width="1" stroke-linejoin="bevel"><path d="M436.7 267L403.7 217L341 279Z" fill="#246688" stroke="#246688"></path><path d="M341 279L429.7 343L436.7 267Z" fill="#081a28" stroke="#081a28"></path><path d="M341 279L290 339L429.7 343Z" fill="#19435d" stroke="#19435d"></path><path d="M403.7 217L298 172L341 279Z" fill="#297ea6" stroke="#297ea6"></path><path d="M341 279L221.3 214L290 339Z" fill="#15384f" stroke="#15384f"></path><path d="M429.7 343L532.3 286L436.7 267Z" fill="#246688" stroke="#246688"></path><path d="M436.7 267L531.3 156L403.7 217Z" fill="#205a7a" stroke="#205a7a"></path><path d="M290 339L402.7 416L429.7 343Z" fill="#297ea6" stroke="#297ea6"></path><path d="M429.7 343L561.3 335L532.3 286Z" fill="#00101c" stroke="#00101c"></path><path d="M403.7 217L295 126L298 172Z" fill="#0c2435" stroke="#0c2435"></path><path d="M298 172L221.3 214L341 279Z" fill="#246688" stroke="#246688"></path><path d="M462.7 99L295 126L403.7 217Z" fill="#1d4e6b" stroke="#1d4e6b"></path><path d="M295 126L221.3 214L298 172Z" fill="#112e42" stroke="#112e42"></path><path d="M532.3 286L531.3 156L436.7 267Z" fill="#0c2435" stroke="#0c2435"></path><path d="M531.3 156L462.7 99L403.7 217Z" fill="#205a7a" stroke="#205a7a"></path><path d="M525.3 432L561.3 335L429.7 343Z" fill="#205a7a" stroke="#205a7a"></path><path d="M532.3 286L655 169L531.3 156Z" fill="#205a7a" stroke="#205a7a"></path><path d="M229.3 481L342 449L290 339Z" fill="#297ea6" stroke="#297ea6"></path><path d="M290 339L342 449L402.7 416Z" fill="#277297" stroke="#277297"></path><path d="M402.7 416L525.3 432L429.7 343Z" fill="#246688" stroke="#246688"></path><path d="M116.7 196L182.3 233L221.3 214Z" fill="#205a7a" stroke="#205a7a"></path><path d="M221.3 214L182.3 233L290 339Z" fill="#19435d" stroke="#19435d"></path><path d="M444.7 540L525.3 432L402.7 416Z" fill="#112e42" stroke="#112e42"></path><path d="M182.3 233L174.3 371L290 339Z" fill="#1d4e6b" stroke="#1d4e6b"></path><path d="M182.3 233L144.7 354L174.3 371Z" fill="#081a28" stroke="#081a28"></path><path d="M284 0L229.3 58L295 126Z" fill="#297ea6" stroke="#297ea6"></path><path d="M295 126L229.3 58L221.3 214Z" fill="#1d4e6b" stroke="#1d4e6b"></path><path d="M182.3 233L78.7 268L144.7 354Z" fill="#246688" stroke="#246688"></path><path d="M615 54L558.3 58L531.3 156Z" fill="#277297" stroke="#277297"></path><path d="M531.3 156L558.3 58L462.7 99Z" fill="#277297" stroke="#277297"></path><path d="M462.7 99L433.7 0L295 126Z" fill="#205a7a" stroke="#205a7a"></path><path d="M498.3 0L433.7 0L462.7 99Z" fill="#277297" stroke="#277297"></path><path d="M525.3 432L642 349L561.3 335Z" fill="#1d4e6b" stroke="#1d4e6b"></path><path d="M561.3 335L679 281L532.3 286Z" fill="#205a7a" stroke="#205a7a"></path><path d="M174.3 371L229.3 481L290 339Z" fill="#205a7a" stroke="#205a7a"></path><path d="M342 449L444.7 540L402.7 416Z" fill="#00101c" stroke="#00101c"></path><path d="M143.7 487L229.3 481L174.3 371Z" fill="#0c2435" stroke="#0c2435"></path><path d="M229.3 58L116.7 196L221.3 214Z" fill="#081a28" stroke="#081a28"></path><path d="M229.3 481L346 540L342 449Z" fill="#246688" stroke="#246688"></path><path d="M346 540L444.7 540L342 449Z" fill="#246688" stroke="#246688"></path><path d="M525.3 432L675 479L642 349Z" fill="#081a28" stroke="#081a28"></path><path d="M433.7 0L284 0L295 126Z" fill="#081a28" stroke="#081a28"></path><path d="M679 281L655 169L532.3 286Z" fill="#277297" stroke="#277297"></path><path d="M558.3 58L498.3 0L462.7 99Z" fill="#205a7a" stroke="#205a7a"></path><path d="M642 349L679 281L561.3 335Z" fill="#081a28" stroke="#081a28"></path><path d="M444.7 540L511.3 540L525.3 432Z" fill="#297ea6" stroke="#297ea6"></path><path d="M116.7 196L78.7 268L182.3 233Z" fill="#205a7a" stroke="#205a7a"></path><path d="M144.7 354L143.7 487L174.3 371Z" fill="#00101c" stroke="#00101c"></path><path d="M655 169L615 54L531.3 156Z" fill="#081a28" stroke="#081a28"></path><path d="M558.3 58L649 0L498.3 0Z" fill="#15384f" stroke="#15384f"></path><path d="M284 0L206.3 0L229.3 58Z" fill="#205a7a" stroke="#205a7a"></path><path d="M229.3 58L92.7 83L116.7 196Z" fill="#205a7a" stroke="#205a7a"></path><path d="M0 168L0 294L78.7 268Z" fill="#1d4e6b" stroke="#1d4e6b"></path><path d="M229.3 481L177.3 540L346 540Z" fill="#112e42" stroke="#112e42"></path><path d="M0 454L143.7 487L144.7 354Z" fill="#0c2435" stroke="#0c2435"></path><path d="M642 349L709.7 351L679 281Z" fill="#277297" stroke="#277297"></path><path d="M679 281L714.7 197L655 169Z" fill="#081a28" stroke="#081a28"></path><path d="M718.7 431L709.7 351L642 349Z" fill="#205a7a" stroke="#205a7a"></path><path d="M731.7 264L714.7 197L679 281Z" fill="#1d4e6b" stroke="#1d4e6b"></path><path d="M655 169L714.7 128L615 54Z" fill="#112e42" stroke="#112e42"></path><path d="M709.7 351L731.7 264L679 281Z" fill="#00101c" stroke="#00101c"></path><path d="M206.3 0L92.7 83L229.3 58Z" fill="#1d4e6b" stroke="#1d4e6b"></path><path d="M143.7 487L177.3 540L229.3 481Z" fill="#112e42" stroke="#112e42"></path><path d="M838.3 125L714.7 128L714.7 197Z" fill="#246688" stroke="#246688"></path><path d="M714.7 197L714.7 128L655 169Z" fill="#112e42" stroke="#112e42"></path><path d="M660 540L675 479L525.3 432Z" fill="#205a7a" stroke="#205a7a"></path><path d="M675 479L718.7 431L642 349Z" fill="#19435d" stroke="#19435d"></path><path d="M864.3 352L862.3 260L731.7 264Z" fill="#15384f" stroke="#15384f"></path><path d="M716.7 0L649 0L615 54Z" fill="#1d4e6b" stroke="#1d4e6b"></path><path d="M615 54L649 0L558.3 58Z" fill="#0c2435" stroke="#0c2435"></path><path d="M0 454L118.7 540L143.7 487Z" fill="#081a28" stroke="#081a28"></path><path d="M143.7 487L118.7 540L177.3 540Z" fill="#205a7a" stroke="#205a7a"></path><path d="M511.3 540L660 540L525.3 432Z" fill="#081a28" stroke="#081a28"></path><path d="M675 479L768.7 540L718.7 431Z" fill="#19435d" stroke="#19435d"></path><path d="M0 168L78.7 268L116.7 196Z" fill="#277297" stroke="#277297"></path><path d="M78.7 268L0 324L144.7 354Z" fill="#00101c" stroke="#00101c"></path><path d="M206.3 0L100.7 0L92.7 83Z" fill="#112e42" stroke="#112e42"></path><path d="M92.7 83L0 168L116.7 196Z" fill="#297ea6" stroke="#297ea6"></path><path d="M0 294L0 324L78.7 268Z" fill="#00101c" stroke="#00101c"></path><path d="M0 106L0 168L92.7 83Z" fill="#19435d" stroke="#19435d"></path><path d="M0 0L0 106L92.7 83Z" fill="#246688" stroke="#246688"></path><path d="M838.3 125L716.7 0L714.7 128Z" fill="#00101c" stroke="#00101c"></path><path d="M714.7 128L716.7 0L615 54Z" fill="#297ea6" stroke="#297ea6"></path><path d="M0 324L0 454L144.7 354Z" fill="#277297" stroke="#277297"></path><path d="M100.7 0L0 0L92.7 83Z" fill="#246688" stroke="#246688"></path><path d="M660 540L768.7 540L675 479Z" fill="#0c2435" stroke="#0c2435"></path><path d="M864.3 352L731.7 264L709.7 351Z" fill="#15384f" stroke="#15384f"></path><path d="M849.3 144L838.3 125L714.7 197Z" fill="#112e42" stroke="#112e42"></path><path d="M862.3 260L714.7 197L731.7 264Z" fill="#246688" stroke="#246688"></path><path d="M864.3 352L709.7 351L718.7 431Z" fill="#00101c" stroke="#00101c"></path><path d="M0 454L0 540L118.7 540Z" fill="#19435d" stroke="#19435d"></path><path d="M862.3 260L849.3 144L714.7 197Z" fill="#1d4e6b" stroke="#1d4e6b"></path><path d="M857.3 440L864.3 352L718.7 431Z" fill="#19435d" stroke="#19435d"></path><path d="M768.7 540L857.3 440L718.7 431Z" fill="#246688" stroke="#246688"></path><path d="M960 89L837.3 0L838.3 125Z" fill="#277297" stroke="#277297"></path><path d="M838.3 125L837.3 0L716.7 0Z" fill="#15384f" stroke="#15384f"></path><path d="M960 89L838.3 125L849.3 144Z" fill="#0c2435" stroke="#0c2435"></path><path d="M768.7 540L837.3 540L857.3 440Z" fill="#112e42" stroke="#112e42"></path><path d="M864.3 352L960 296L862.3 260Z" fill="#15384f" stroke="#15384f"></path><path d="M862.3 260L960 207L849.3 144Z" fill="#19435d" stroke="#19435d"></path><path d="M960 381L960 296L864.3 352Z" fill="#277297" stroke="#277297"></path><path d="M960 381L864.3 352L857.3 440Z" fill="#0c2435" stroke="#0c2435"></path><path d="M960 296L960 207L862.3 260Z" fill="#297ea6" stroke="#297ea6"></path><path d="M960 486L960 381L857.3 440Z" fill="#277297" stroke="#277297"></path><path d="M960 207L960 89L849.3 144Z" fill="#0c2435" stroke="#0c2435"></path><path d="M837.3 540L960 486L857.3 440Z" fill="#15384f" stroke="#15384f"></path><path d="M960 89L960 0L837.3 0Z" fill="#19435d" stroke="#19435d"></path><path d="M837.3 540L960 540L960 486Z" fill="#297ea6" stroke="#297ea6"></path></g></svg>